<svg version="1.1" preserveAspectRatio="none" xmlns="http://www.w3.org/2000/svg" width="500" height="500" viewBox="0 0 500 500"><rect width="100%" height="100%" fill="#0B0633" fill-opacity="1"/><svg viewBox="279.2661 280.6847 577.7709 165.2" width="333" height="95.21351802245492" x="83.5px" y="202.3932px" xmlns="http://www.w3.org/2000/svg" xmlns:xlink="http://www.w3.org/1999/xlink" preserveAspectRatio="none"><defs></defs><style>.companyName {fill:#F5F4F4;fill-opacity:1;}.icon1 {fill:#FF4949;fill-opacity:1;}.icon2 {fill:#4F53FF;fill-opacity:1;}.icon3 {fill:#EB63DD;fill-opacity:1;}.icon3-str {stroke:#EB63DD;stroke-opacity:1;}.shapeStroke-str {stroke:#313131;stroke-opacity:1;}.text {fill:#F9F9F9;fill-opacity:1;}</style><g opacity="1" transform="rotate(0 279.2661 295.6847)">
<svg width="140.7872" height="135.2" x="279.2661" y="295.6847" version="1.1" preserveAspectRatio="none" viewBox="61.973731994628906 69.77372741699219 368.5525207519531 353.92626953125">
  <g transform="matrix(1 0 0 1 0 0)" class="icon1"><g><g><g><g><g><g><path class="st0" d="M347,226.9c-1.5,0-3-0.6-4.1-1.7l-23.8-23.8H158.4c-3.2,0-5.8-2.6-5.8-5.8V96.1c0-3.2,2.6-5.8,5.8-5.8        s5.8,2.6,5.8,5.8v93.8h157.4c1.5,0,3,0.6,4.1,1.7l25.5,25.5c2.3,2.3,2.3,5.9,0,8.1C350,226.4,348.5,226.9,347,226.9z"></path></g></g><g><g><path class="st0" d="M107.9,344c-3.2,0-5.8-2.6-5.8-5.8v-38.6L73.5,271c-1.1-1.1-1.7-2.5-1.7-4.1v-34.1c0-1.5,0.6-3,1.7-4.1        l43.8-43.8v-54.5c0-3.2,2.6-5.8,5.8-5.8s5.8,2.6,5.8,5.8v56.9c0,1.5-0.6,3-1.7,4.1l-43.8,43.8v29.3l28.6,28.6        c1.1,1.1,1.7,2.5,1.7,4.1v41C113.6,341.4,111.1,344,107.9,344z"></path></g></g><g><g><path class="st0" d="M166.3,408.2h-46.9c-1.5,0-3-0.6-4.1-1.7l-41.7-41.7c-1.1-1.1-1.7-2.5-1.7-4.1v-39c0-3.2,2.6-5.8,5.8-5.8        s5.8,2.6,5.8,5.8v36.6l38.4,38.4h44.5c3.2,0,5.8,2.6,5.8,5.8C172.1,405.7,169.5,408.2,166.3,408.2z"></path></g></g><g><g><path class="st0" d="M225.3,406.4c-1.5,0-3-0.6-4.1-1.7l-79-79c-1.1-1.1-1.7-2.5-1.7-4.1v-45.6l-22.7-22.7        c-2.3-2.3-2.3-5.9,0-8.1c2.3-2.3,5.9-2.3,8.1,0l24.4,24.4c1.1,1.1,1.7,2.5,1.7,4.1v45.6l77.3,77.3c2.3,2.3,2.3,5.9,0,8.1        C228.3,405.9,226.8,406.4,225.3,406.4z"></path></g></g><g><g><path class="st0" d="M337.1,403.7h-41.3c-1.5,0-3-0.6-4.1-1.7l-97.9-97.9c-2.3-2.3-2.3-5.9,0-8.1c2.3-2.3,5.9-2.3,8.1,0        l96.2,96.2h33.1v-30.1c0-1.5,0.6-3,1.7-4.1l25.5-25.5c2.3-2.3,5.9-2.3,8.1,0c2.3,2.3,2.3,5.9,0,8.1l-23.9,23.9v33.5        C342.9,401.1,340.3,403.7,337.1,403.7z"></path></g></g><g><g><path class="st0" d="M414.9,403.6c-3.2,0-5.8-2.6-5.8-5.8V261.8l-42.4,42.4c-1.1,1.1-2.5,1.7-4.1,1.7h-93.4        c-3.2,0-5.8-2.6-5.8-5.8c0-3.2,2.6-5.8,5.8-5.8h91l50.5-50.5c1.7-1.7,4.1-2.1,6.3-1.2s3.6,3,3.6,5.3v150        C420.7,401,418.1,403.6,414.9,403.6z"></path></g></g><g><g><path class="st0" d="M309.8,267.6h-57c-1.5,0-3-0.6-4.1-1.7l-25.8-25.8h-56.6c-3.2,0-5.8-2.6-5.8-5.8s2.6-5.8,5.8-5.8h59        c1.5,0,3,0.6,4.1,1.7l25.8,25.8h54.6c3.2,0,5.8,2.6,5.8,5.8C315.6,265.1,313,267.6,309.8,267.6z"></path></g></g><g><g><path class="st0" d="M390.5,182.5c-1.5,0-3-0.6-4.1-1.7L370,164.4H202.4c-3.2,0-5.8-2.6-5.8-5.8v-28.1c0-3.2,2.6-5.8,5.8-5.8        s5.8,2.6,5.8,5.8v22.4h164.2c1.5,0,3,0.6,4.1,1.7l18.1,18.1c2.3,2.3,2.3,5.9,0,8.1C393.4,182,392,182.5,390.5,182.5z"></path></g></g><g><g><path class="st0" d="M123.1,135.6c-3.9,0-7.6-1.4-10.5-4c-3.1-2.8-4.9-6.6-5.2-10.8c-0.2-4.2,1.2-8.2,4-11.3        c2.8-3.1,6.6-4.9,10.8-5.2c8.6-0.5,16,6.2,16.5,14.8c0.2,4.2-1.2,8.2-4,11.3c-2.8,3.1-6.6,4.9-10.8,5.2        C123.7,135.6,123.4,135.6,123.1,135.6L123.1,135.6z M123.1,115.8c-0.1,0-0.1,0-0.2,0c-1.1,0-2.1,0.6-2.9,1.4s-1.1,1.9-1.1,3        c0,1.1,0.6,2.1,1.4,2.9c0.8,0.7,1.9,1.1,3,1.1c1.1,0,2.1-0.6,2.9-1.4s1.1-1.9,1.1-3C127.2,117.5,125.3,115.8,123.1,115.8z"></path></g></g><g><g><path class="st0" d="M158.3,101.1c-3.9,0-7.6-1.4-10.5-4c-3.1-2.8-4.9-6.6-5.2-10.8c-0.2-4.2,1.2-8.2,4-11.3        c2.8-3.1,6.6-4.9,10.8-5.2c8.6-0.5,16,6.2,16.5,14.8c0.2,4.2-1.2,8.2-4,11.3c-2.8,3.1-6.6,4.9-10.8,5.2l0,0        C158.9,101.1,158.6,101.1,158.3,101.1L158.3,101.1z M158.9,95.3L158.9,95.3L158.9,95.3L158.9,95.3z M158.4,81.3        c-0.1,0-0.1,0-0.2,0c-1.1,0-2.1,0.6-2.9,1.4s-1.1,1.9-1.1,3c0,1.1,0.6,2.1,1.4,2.9c0.8,0.7,1.9,1.1,3,1.1l0,0        c1.1,0,2.1-0.6,2.9-1.4s1.1-1.9,1.1-3C162.4,83,160.6,81.3,158.4,81.3z"></path></g></g><g><g><path class="st0" d="M202.4,135.3c-8.3,0-15.2-6.5-15.6-14.8c-0.2-4.2,1.2-8.2,4-11.3c2.8-3.1,6.6-4.9,10.8-5.2        c4.2-0.2,8.2,1.2,11.3,4c3.1,2.8,4.9,6.6,5.2,10.8c0.2,4.2-1.2,8.2-4,11.3c-2.8,3.1-6.6,4.9-10.8,5.2        C203,135.2,202.7,135.3,202.4,135.3L202.4,135.3z M202.4,115.4c-0.1,0-0.1,0-0.2,0c-2.3,0.1-4.1,2.1-3.9,4.4        c0.1,2.3,2.1,4.1,4.4,3.9c1.1,0,2.1-0.6,2.9-1.4s1.1-1.9,1.1-3c0-1.1-0.6-2.1-1.4-2.9C204.4,115.8,203.4,115.4,202.4,115.4z"></path></g></g><g><g><path class="st0" d="M114.9,257.3c-3.9,0-7.6-1.4-10.5-4c-3.1-2.8-4.9-6.6-5.2-10.8c-0.5-8.6,6.2-16,14.8-16.5        c4.2-0.2,8.2,1.2,11.3,4c3.1,2.8,4.9,6.6,5.2,10.8c0.2,4.2-1.2,8.2-4,11.3c-2.8,3.1-6.6,4.9-10.8,5.2        C115.5,257.3,115.2,257.3,114.9,257.3L114.9,257.3z M115,237.5c-0.1,0-0.1,0-0.2,0c-2.3,0.1-4.1,2.1-3.9,4.4        c0,1.1,0.6,2.1,1.4,2.9s1.9,1.1,3,1.1l0,0c1.1,0,2.1-0.6,2.9-1.4c0.7-0.8,1.1-1.9,1.1-3c0-1.1-0.6-2.1-1.4-2.9        C117,237.9,116,237.5,115,237.5z"></path></g></g><g><g><path class="st0" d="M155.6,250c-3.9,0-7.6-1.4-10.5-4c-3.1-2.8-4.9-6.6-5.2-10.8c-0.5-8.6,6.2-16,14.8-16.5        c4.2-0.2,8.2,1.2,11.3,4c3.1,2.8,4.9,6.6,5.2,10.8c0.2,4.2-1.2,8.2-4,11.3s-6.6,4.9-10.8,5.2l0,0        C156.2,250,155.9,250,155.6,250L155.6,250z M155.6,230.2c-0.1,0-0.1,0-0.2,0c-2.3,0.1-4.1,2.1-3.9,4.4c0,1.1,0.6,2.1,1.4,2.9        s1.9,1.1,3,1.1l0,0c1.1,0,2.1-0.6,2.9-1.4s1.1-1.9,1.1-3c0-1.1-0.6-2.1-1.4-2.9C157.7,230.6,156.7,230.2,155.6,230.2z"></path></g></g><g><g><path class="st0" d="M321.1,277.5c-3.9,0-7.6-1.4-10.5-4c-3.1-2.8-4.9-6.6-5.2-10.8c-0.2-4.2,1.2-8.2,4-11.3s6.6-4.9,10.8-5.2        c8.6-0.5,16,6.2,16.5,14.8c0.5,8.6-6.2,16-14.8,16.5C321.7,277.5,321.4,277.5,321.1,277.5L321.1,277.5z M321.1,257.7        c-0.1,0-0.1,0-0.2,0c-1.1,0-2.1,0.6-2.9,1.4c-0.7,0.8-1.1,1.9-1.1,3c0,1.1,0.6,2.1,1.4,2.9c0.8,0.7,1.9,1.1,3,1.1        c2.3-0.1,4.1-2.1,3.9-4.4C325.1,259.4,323.3,257.7,321.1,257.7z"></path></g></g><g><g><path class="st0" d="M353.1,245.1c-8.3,0-15.2-6.5-15.6-14.8c-0.5-8.6,6.2-16,14.8-16.5c4.2-0.2,8.2,1.2,11.3,4        c3.1,2.8,4.9,6.6,5.2,10.8c0.2,4.2-1.2,8.2-4,11.3s-6.6,4.9-10.8,5.2C353.6,245.1,353.3,245.1,353.1,245.1L353.1,245.1z         M353.1,225.3c-0.1,0-0.1,0-0.2,0c-2.3,0.1-4.1,2.1-3.9,4.4s2.1,4.1,4.4,3.9c1.1,0,2.1-0.6,2.9-1.4c0.7-0.8,1.1-1.9,1.1-3        c0-1.1-0.6-2.1-1.4-2.9C355.1,225.7,354.1,225.3,353.1,225.3z"></path></g></g><g><g><path class="st0" d="M397.5,200.2c-3.9,0-7.6-1.4-10.5-4c-3.1-2.8-4.9-6.6-5.2-10.8c-0.2-4.2,1.2-8.2,4-11.3        c2.8-3.1,6.6-4.9,10.8-5.2c8.6-0.5,16,6.2,16.5,14.8c0.2,4.2-1.2,8.2-4,11.3s-6.6,4.9-10.8,5.2        C398.1,200.2,397.8,200.2,397.5,200.2L397.5,200.2z M397.5,180.4c-0.1,0-0.1,0-0.2,0c-1.1,0-2.1,0.6-2.9,1.4        c-0.7,0.8-1.1,1.9-1.1,3c0,1.1,0.6,2.1,1.4,2.9s1.9,1.1,3,1.1c1.1,0,2.1-0.6,2.9-1.4c0.7-0.8,1.1-1.9,1.1-3        C401.6,182.1,399.7,180.4,397.5,180.4z"></path></g></g><g><g><path class="st0" d="M259,315.7c-3.9,0-7.6-1.4-10.5-4c-3.1-2.8-4.9-6.6-5.2-10.8c-0.2-4.2,1.2-8.2,4-11.3        c2.8-3.1,6.6-4.9,10.8-5.2c8.6-0.5,16,6.2,16.5,14.8c0.2,4.2-1.2,8.2-4,11.3c-2.8,3.1-6.6,4.9-10.8,5.2l0,0        C259.6,315.7,259.3,315.7,259,315.7L259,315.7z M259,295.9c-0.1,0-0.1,0-0.2,0c-1.1,0-2.1,0.6-2.9,1.4c-0.7,0.8-1.1,1.9-1.1,3        c0,1.1,0.6,2.1,1.4,2.9c0.8,0.7,1.9,1.1,3,1.1l0,0c1.1,0,2.1-0.6,2.9-1.4s1.1-1.9,1.1-3C263,297.6,261.2,295.9,259,295.9z"></path></g></g><g><g><path class="st0" d="M191.5,307.9c-3.9,0-7.6-1.4-10.5-4c-3.1-2.8-4.9-6.6-5.2-10.8c-0.2-4.2,1.2-8.2,4-11.3        c2.8-3.1,6.6-4.9,10.8-5.2c8.6-0.5,16,6.2,16.5,14.8c0.2,4.2-1.2,8.2-4,11.3c-2.8,3.1-6.6,4.9-10.8,5.2        C192.1,307.9,191.8,307.9,191.5,307.9L191.5,307.9z M191.5,288.1c-0.1,0-0.1,0-0.2,0c-1.1,0-2.1,0.6-2.9,1.4s-1.1,1.9-1.1,3        c0,1.1,0.6,2.1,1.4,2.9c0.8,0.7,1.9,1.1,3,1.1c1.1,0,2.1-0.6,2.9-1.4s1.1-1.9,1.1-3C195.6,289.8,193.7,288.1,191.5,288.1z"></path></g></g><g><g><path class="st0" d="M369.2,344.5c-8.3,0-15.2-6.5-15.6-14.8c-0.5-8.6,6.2-16,14.8-16.5c4.2-0.2,8.2,1.2,11.3,4        c3.1,2.8,4.9,6.6,5.2,10.8c0.2,4.2-1.2,8.2-4,11.3c-2.8,3.1-6.6,4.9-10.8,5.2C369.8,344.4,369.5,344.5,369.2,344.5        L369.2,344.5z M369.2,324.6c-0.1,0-0.1,0-0.2,0c-2.3,0.1-4.1,2.1-3.9,4.4s2.1,4.1,4.4,3.9c1.1,0,2.1-0.6,2.9-1.4        c0.7-0.8,1.1-1.9,1.1-3c0-1.1-0.6-2.1-1.4-2.9C371.2,325,370.2,324.6,369.2,324.6z"></path></g></g><g><g><path class="st0" d="M414.9,423.7c-3.9,0-7.6-1.4-10.5-4c-3.1-2.8-4.9-6.6-5.2-10.8c-0.2-4.2,1.2-8.2,4-11.3        c2.8-3.1,6.6-4.9,10.8-5.2c8.6-0.5,16,6.2,16.5,14.8c0.5,8.6-6.2,16-14.8,16.5C415.5,423.7,415.2,423.7,414.9,423.7        L414.9,423.7z M414.9,403.9c-0.1,0-0.1,0-0.2,0c-1.1,0-2.1,0.6-2.9,1.4c-0.7,0.8-1.1,1.9-1.1,3c0,1.1,0.6,2.1,1.4,2.9        c0.8,0.7,1.9,1.1,3,1.1c2.3-0.1,4.1-2.1,3.9-4.4C419,405.6,417.1,403.9,414.9,403.9z"></path></g></g><g><g><path class="st0" d="M232.4,423.7c-8.3,0-15.2-6.5-15.6-14.8c-0.5-8.6,6.2-16,14.8-16.5c4.2-0.2,8.2,1.2,11.3,4        c3.1,2.8,4.9,6.6,5.2,10.8c0.2,4.2-1.2,8.2-4,11.3c-2.8,3.1-6.6,4.9-10.8,5.2C233,423.7,232.7,423.7,232.4,423.7L232.4,423.7z         M232.4,403.9c-0.1,0-0.1,0-0.2,0c-2.3,0.1-4.1,2.1-3.9,4.4s2.1,4.1,4.4,3.9c1.1,0,2.1-0.6,2.9-1.4s1.1-1.9,1.1-3        c0-1.1-0.6-2.1-1.4-2.9C234.4,404.3,233.4,403.9,232.4,403.9z"></path></g></g><g><g><path class="st0" d="M176.9,418.1c-8.3,0-15.2-6.5-15.6-14.8c-0.5-8.6,6.2-16,14.8-16.5c8.6-0.5,16,6.2,16.5,14.8        c0.5,8.6-6.2,16-14.8,16.5l0,0C177.4,418.1,177.2,418.1,176.9,418.1L176.9,418.1z M177.4,412.4L177.4,412.4L177.4,412.4        L177.4,412.4z M176.9,398.3c-0.1,0-0.1,0-0.2,0c-2.3,0.1-4.1,2.1-3.9,4.4s2.1,4.1,4.4,3.9l0,0c2.3-0.1,4.1-2.1,3.9-4.4        C180.9,400,179.1,398.3,176.9,398.3z"></path></g></g><g><g><path class="st0" d="M77.6,327.1c-8.3,0-15.2-6.5-15.6-14.8c-0.5-8.6,6.2-16,14.8-16.5c4.2-0.2,8.2,1.2,11.3,4        c3.1,2.8,4.9,6.6,5.2,10.8c0.2,4.2-1.2,8.2-4,11.3c-2.8,3.1-6.6,4.9-10.8,5.2C78.2,327.1,77.9,327.1,77.6,327.1L77.6,327.1z         M77.6,307.3c-0.1,0-0.1,0-0.2,0c-2.3,0.1-4.1,2.1-3.9,4.4s2.1,4.1,4.4,3.9c1.1,0,2.1-0.6,2.9-1.4s1.1-1.9,1.1-3        c0-1.1-0.6-2.1-1.4-2.9C79.6,307.7,78.7,307.3,77.6,307.3z"></path></g></g><g><g><path class="st0" d="M107.9,364.3c-8.3,0-15.2-6.5-15.6-14.8c-0.2-4.2,1.2-8.2,4-11.3c2.8-3.1,6.6-4.9,10.8-5.2        c4.2-0.2,8.2,1.2,11.3,4c3.1,2.8,4.9,6.6,5.2,10.8c0.2,4.2-1.2,8.2-4,11.3c-2.8,3.1-6.6,4.9-10.8,5.2        C108.5,364.2,108.2,364.3,107.9,364.3L107.9,364.3z M107.9,344.4c-0.1,0-0.1,0-0.2,0c-1.1,0-2.1,0.6-2.9,1.4        c-0.7,0.8-1.1,1.9-1.1,3c0.1,2.3,2.1,4.1,4.4,3.9c1.1,0,2.1-0.6,2.9-1.4s1.1-1.9,1.1-3c0-1.1-0.6-2.1-1.4-2.9        C110,344.8,109,344.4,107.9,344.4z"></path></g></g></g></g></g></g></g>
</svg>
</g><g opacity="1" transform="rotate(0 484.0533 405.6847)">
<svg width="218.5195" height="25.2" x="484.0533" y="405.6847" version="1.1" preserveAspectRatio="none" viewBox="3.12 -28 245.28 28.28">
  <g transform="matrix(1 0 0 1 0 0)" class="text"><path id="id-6izo4zJp12" d="M18.96-21.36L23.96-21.36L23.96 0L19.20 0L19.20-2.72Q18-1.28 16.20-0.50Q14.40 0.28 12.32 0.28L12.32 0.28Q8.04 0.28 5.58-2.10Q3.12-4.48 3.12-9.16L3.12-9.16L3.12-21.36L8.12-21.36L8.12-9.84Q8.12-6.96 9.42-5.54Q10.72-4.12 13.12-4.12L13.12-4.12Q15.80-4.12 17.38-5.78Q18.96-7.44 18.96-10.56L18.96-10.56L18.96-21.36Z M36.48-18.24Q38.64-21.60 44.08-21.60L44.08-21.60L44.08-16.84Q43.44-16.96 42.92-16.96L42.92-16.96Q40-16.96 38.36-15.26Q36.72-13.56 36.72-10.36L36.72-10.36L36.72 0L31.72 0L31.72-21.36L36.48-21.36L36.48-18.24Z M79.20-21.36L83.64-21.36L75.76 0L70.96 0L65.44-14.72L59.84 0L55.04 0L47.20-21.36L51.92-21.36L57.56-5.60L63.44-21.36L67.64-21.36L73.40-5.52L79.20-21.36Z M106.32 0L100.68 0L95.20-7.40L89.68 0L84.16 0L92.48-10.84L84.52-21.36L90.08-21.36L95.32-14.36L100.56-21.36L105.96-21.36L97.96-10.92L106.32 0Z M115.96-18.24Q118.12-21.60 123.56-21.60L123.56-21.60L123.56-16.84Q122.92-16.96 122.40-16.96L122.40-16.96Q119.48-16.96 117.84-15.26Q116.20-13.56 116.20-10.36L116.20-10.36L116.20 0L111.20 0L111.20-21.36L115.96-21.36L115.96-18.24Z M127.80-9.04L127.80-13.20L138.80-13.20L138.80-9.04L127.80-9.04Z M164.72 0L159.08 0L153.60-7.40L148.08 0L142.56 0L150.88-10.84L142.92-21.36L148.48-21.36L153.72-14.36L158.96-21.36L164.36-21.36L156.36-10.92L164.72 0Z M174.36-18.24Q176.52-21.60 181.96-21.60L181.96-21.60L181.96-16.84Q181.32-16.96 180.80-16.96L180.80-16.96Q177.88-16.96 176.24-15.26Q174.60-13.56 174.60-10.36L174.60-10.36L174.60 0L169.60 0L169.60-21.36L174.36-21.36L174.36-18.24Z M186.20-9.04L186.20-13.20L197.20-13.20L197.20-9.04L186.20-9.04Z M223.12 0L217.48 0L212-7.40L206.48 0L200.96 0L209.28-10.84L201.32-21.36L206.88-21.36L212.12-14.36L217.36-21.36L222.76-21.36L214.76-10.92L223.12 0Z M237.28-28L248.40-28L248.40 0L243.20 0L243.20-23.64L237.28-23.64L237.28-28Z"/></g>
</svg>
</g><g opacity="1" transform="rotate(0 484.0533 295.6847)">
<svg width="372.9837" height="90" x="484.0533" y="295.6847" version="1.1" preserveAspectRatio="none" viewBox="1.36 -31.28 131.95999999999998 31.840000000000003">
  <g transform="matrix(1 0 0 1 0 0)" class="companyName"><path id="id-D6z1nYkh6" d="M22.76-28.32Q22.48-24.92 22.48-22.24L22.48-22.24Q22.48-20.36 22.60-19.20L22.60-19.20L21.68-19.20Q20.88-23.72 19.28-25.56Q17.68-27.40 14.80-27.40L14.80-27.40L13.48-27.40Q12.24-27.40 11.68-27.20Q11.12-27 10.92-26.42Q10.72-25.84 10.72-24.56L10.72-24.56L10.72-14.48L12.12-14.48Q14.24-14.48 15.34-16.04Q16.44-17.60 16.88-19.76L16.88-19.76L17.80-19.76Q17.68-18.08 17.68-16L17.68-16L17.68-14.08Q17.68-12.04 17.92-8.40L17.92-8.40L17-8.40Q16.16-13.68 12.12-13.68L12.12-13.68L10.72-13.68L10.72-4.48Q10.72-2.88 11.06-2.14Q11.40-1.40 12.26-1.16Q13.12-0.92 15-0.88L15-0.88L15 0Q10.08-0.12 7.68-0.12L7.68-0.12Q5.68-0.12 2.64-0.04L2.64-0.04L1.36 0L1.36-0.80Q2.68-0.88 3.30-1.12Q3.92-1.36 4.14-2.04Q4.36-2.72 4.36-4.24L4.36-4.24L4.36-24.08Q4.36-25.60 4.14-26.28Q3.92-26.96 3.30-27.20Q2.68-27.44 1.36-27.52L1.36-27.52L1.36-28.32Q5.68-28.20 14.40-28.20L14.40-28.20Q20.28-28.20 22.76-28.32L22.76-28.32Z M49.36-28.32Q49.08-24.52 49.08-21.52L49.08-21.52Q49.08-19.64 49.20-18.48L49.20-18.48L48.28-18.48Q47.32-23.40 45.66-25.40Q44-27.40 41.12-27.40L41.12-27.40L40.20-27.40L40.20-4.56Q40.20-2.88 40.54-2.12Q40.88-1.36 41.74-1.10Q42.60-0.84 44.48-0.80L44.48-0.80L44.48 0Q39.44-0.12 36.88-0.12L36.88-0.12Q34.36-0.12 29.56 0L29.56 0L29.56-0.80Q31.44-0.84 32.30-1.10Q33.16-1.36 33.50-2.12Q33.84-2.88 33.84-4.56L33.84-4.56L33.84-27.40L32.96-27.40Q31.04-27.40 29.70-26.56Q28.36-25.72 27.40-23.78Q26.44-21.84 25.76-18.48L25.76-18.48L24.84-18.48Q24.96-19.64 24.96-21.52L24.96-21.52Q24.96-24.52 24.68-28.32L24.68-28.32Q28.32-28.20 37.04-28.20L37.04-28.20Q45.76-28.20 49.36-28.32L49.36-28.32Z M61.48-2.72Q64.76-2.72 66.76-5.92L66.76-5.92L67.48-5.68Q66.68-3.08 64.62-1.26Q62.56 0.56 59.48 0.56L59.48 0.56Q55.24 0.56 52.74-2.14Q50.24-4.84 50.24-10.12L50.24-10.12Q50.24-15.52 52.92-18.38Q55.60-21.24 60.04-21.24L60.04-21.24Q67.56-21.24 67.56-12.36L67.56-12.36L56.32-12.36Q56.28-11.76 56.28-10.48L56.28-10.48Q56.28-7.84 57.02-6.08Q57.76-4.32 58.94-3.52Q60.12-2.72 61.48-2.72L61.48-2.72ZM59.80-20.40Q58.36-20.40 57.42-18.62Q56.48-16.84 56.24-13.12L56.24-13.12L62.52-13.12Q62.60-16.28 61.90-18.34Q61.20-20.40 59.80-20.40L59.80-20.40Z M75.16 0.28Q72.60 0.28 71.34-1.04Q70.08-2.36 70.08-4.52L70.08-4.52Q70.08-6.32 71.02-7.50Q71.96-8.68 73.30-9.32Q74.64-9.96 76.72-10.68L76.72-10.68Q78.92-11.44 79.94-12.06Q80.96-12.68 80.96-13.76L80.96-13.76L80.96-16.88Q80.96-18.56 80.18-19.50Q79.40-20.44 77.76-20.44L77.76-20.44Q75.84-20.44 74.84-19.48L74.84-19.48Q75.96-19.08 76.58-18.28Q77.20-17.48 77.20-16.40L77.20-16.40Q77.20-15.04 76.28-14.24Q75.36-13.44 74.04-13.44L74.04-13.44Q72.64-13.44 71.88-14.32Q71.12-15.20 71.12-16.52L71.12-16.52Q71.12-17.64 71.66-18.42Q72.20-19.20 73.32-19.88L73.32-19.88Q74.40-20.52 75.98-20.88Q77.56-21.24 79.44-21.24L79.44-21.24Q81.40-21.24 82.84-20.84Q84.28-20.44 85.24-19.48L85.24-19.48Q86.12-18.60 86.42-17.32Q86.72-16.04 86.72-13.84L86.72-13.84L86.72-2.96Q86.72-2 86.90-1.60Q87.08-1.20 87.60-1.20L87.60-1.20Q88.20-1.20 89.04-1.88L89.04-1.88L89.44-1.20Q87.64 0.28 85.04 0.28L85.04 0.28Q82.84 0.28 81.96-0.60Q81.08-1.48 81.04-2.96L81.04-2.96Q79.04 0.28 75.16 0.28L75.16 0.28ZM78.24-2.28Q79.80-2.28 80.96-3.92L80.96-3.92L80.96-12.12Q80.48-11.32 78.92-10.36L78.92-10.36Q77.36-9.36 76.56-8.36Q75.76-7.36 75.76-5.48L75.76-5.48Q75.76-3.84 76.44-3.06Q77.12-2.28 78.24-2.28L78.24-2.28Z M101-21.24Q102.48-21.24 103.80-20.92Q105.12-20.60 106-20.04L106-20.04Q107.04-19.40 107.62-18.42Q108.20-17.44 108.20-16.28L108.20-16.28Q108.20-14.88 107.32-13.98Q106.44-13.08 105.04-13.08L105.04-13.08Q103.64-13.08 102.80-13.88Q101.96-14.68 101.96-16.04L101.96-16.04Q101.96-17.24 102.72-18.12Q103.48-19 104.60-19.32L104.60-19.32Q104.28-19.76 103.62-20.02Q102.96-20.28 102.20-20.28L102.20-20.28Q99.80-20.28 98.46-17.66Q97.12-15.04 97.12-10.80L97.12-10.80Q97.12-6.52 98.64-4.64Q100.16-2.76 102.44-2.76L102.44-2.76Q103.80-2.76 105.18-3.48Q106.56-4.20 107.68-6L107.68-6L108.36-5.76Q107.56-3.16 105.56-1.30Q103.56 0.56 100.40 0.56L100.40 0.56Q96.28 0.56 93.68-2.16Q91.08-4.88 91.08-10.24L91.08-10.24Q91.08-13.76 92.36-16.24Q93.64-18.72 95.88-19.98Q98.12-21.24 101-21.24L101-21.24Z M118.56-31.28L118.56-17.52Q120.36-21.24 125.08-21.24L125.08-21.24Q128.20-21.24 129.48-19.68L129.48-19.68Q130.16-18.92 130.46-17.70Q130.76-16.48 130.76-14.48L130.76-14.48L130.76-3.72Q130.76-2.08 131.32-1.46Q131.88-0.84 133.32-0.84L133.32-0.84L133.32 0Q129.16-0.16 128.04-0.16L128.04-0.16Q126.68-0.16 122.84 0L122.84 0L122.84-0.84Q124.04-0.84 124.52-1.46Q125-2.08 125-3.72L125-3.72L125-16.16Q125-17.80 124.46-18.64Q123.92-19.48 122.52-19.48L122.52-19.48Q120.84-19.48 119.70-18.18Q118.56-16.88 118.56-14.88L118.56-14.88L118.56-3.72Q118.56-2.08 119.04-1.46Q119.52-0.84 120.72-0.84L120.72-0.84L120.72 0Q116.88-0.16 115.76-0.16L115.76-0.16Q114.40-0.16 110.24 0L110.24 0L110.24-0.84Q111.64-0.84 112.22-1.46Q112.80-2.08 112.80-3.72L112.80-3.72L112.80-26.48Q112.80-28.32 112.22-29.16Q111.64-30 110.24-30L110.24-30L110.24-30.84Q111.52-30.72 112.72-30.72L112.72-30.72Q116.20-30.72 118.56-31.28L118.56-31.28Z"/></g>
</svg>
</g><g opacity="1" transform="rotate(0 449.0533 280.6847)">
<svg width="3" height="165.2" x="449.0533" y="280.6847" version="1.1" preserveAspectRatio="none" viewBox="0 0 3 165.2">
  <rect x="0" y="0" width="3" height="165.2" class="companyName shapeStroke-str" style="stroke-width:0;" rx="0px" ry="0px" />
</svg>
</g></svg></svg>