<svg version="1.1" preserveAspectRatio="none" xmlns="http://www.w3.org/2000/svg" width="500" height="500" viewBox="0 0 500 500"><rect width="100%" height="100%" fill="#F5F1EE" fill-opacity="1"/><svg viewBox="216.1911 267.4897 371.1834 321.2262" width="333" height="288.18186535281484" x="83.5px" y="105.9091px" xmlns="http://www.w3.org/2000/svg" xmlns:xlink="http://www.w3.org/1999/xlink" preserveAspectRatio="none"><defs></defs><style>.companyName {fill:#9D5D35;fill-opacity:1;}.icon1 {fill:#D6C4B0;fill-opacity:1;}.icon2 {fill:#5D949E;fill-opacity:1;}.icon3 {fill:#958868;fill-opacity:1;}.icon3-str {stroke:#958868;stroke-opacity:1;}.text {fill:#958868;fill-opacity:1;}</style><g opacity="1" transform="rotate(0 308.987 267.4897)">
<svg width="185.5917" height="178.2262" x="308.987" y="267.4897" version="1.1" preserveAspectRatio="none" viewBox="61.973731994628906 69.77372741699219 368.5525207519531 353.92626953125">
  <g transform="matrix(1 0 0 1 0 0)" class="icon1"><g><g><g><g><g><g><path class="st0" d="M347,226.9c-1.5,0-3-0.6-4.1-1.7l-23.8-23.8H158.4c-3.2,0-5.8-2.6-5.8-5.8V96.1c0-3.2,2.6-5.8,5.8-5.8        s5.8,2.6,5.8,5.8v93.8h157.4c1.5,0,3,0.6,4.1,1.7l25.5,25.5c2.3,2.3,2.3,5.9,0,8.1C350,226.4,348.5,226.9,347,226.9z"></path></g></g><g><g><path class="st0" d="M107.9,344c-3.2,0-5.8-2.6-5.8-5.8v-38.6L73.5,271c-1.1-1.1-1.7-2.5-1.7-4.1v-34.1c0-1.5,0.6-3,1.7-4.1        l43.8-43.8v-54.5c0-3.2,2.6-5.8,5.8-5.8s5.8,2.6,5.8,5.8v56.9c0,1.5-0.6,3-1.7,4.1l-43.8,43.8v29.3l28.6,28.6        c1.1,1.1,1.7,2.5,1.7,4.1v41C113.6,341.4,111.1,344,107.9,344z"></path></g></g><g><g><path class="st0" d="M166.3,408.2h-46.9c-1.5,0-3-0.6-4.1-1.7l-41.7-41.7c-1.1-1.1-1.7-2.5-1.7-4.1v-39c0-3.2,2.6-5.8,5.8-5.8        s5.8,2.6,5.8,5.8v36.6l38.4,38.4h44.5c3.2,0,5.8,2.6,5.8,5.8C172.1,405.7,169.5,408.2,166.3,408.2z"></path></g></g><g><g><path class="st0" d="M225.3,406.4c-1.5,0-3-0.6-4.1-1.7l-79-79c-1.1-1.1-1.7-2.5-1.7-4.1v-45.6l-22.7-22.7        c-2.3-2.3-2.3-5.9,0-8.1c2.3-2.3,5.9-2.3,8.1,0l24.4,24.4c1.1,1.1,1.7,2.5,1.7,4.1v45.6l77.3,77.3c2.3,2.3,2.3,5.9,0,8.1        C228.3,405.9,226.8,406.4,225.3,406.4z"></path></g></g><g><g><path class="st0" d="M337.1,403.7h-41.3c-1.5,0-3-0.6-4.1-1.7l-97.9-97.9c-2.3-2.3-2.3-5.9,0-8.1c2.3-2.3,5.9-2.3,8.1,0        l96.2,96.2h33.1v-30.1c0-1.5,0.6-3,1.7-4.1l25.5-25.5c2.3-2.3,5.9-2.3,8.1,0c2.3,2.3,2.3,5.9,0,8.1l-23.9,23.9v33.5        C342.9,401.1,340.3,403.7,337.1,403.7z"></path></g></g><g><g><path class="st0" d="M414.9,403.6c-3.2,0-5.8-2.6-5.8-5.8V261.8l-42.4,42.4c-1.1,1.1-2.5,1.7-4.1,1.7h-93.4        c-3.2,0-5.8-2.6-5.8-5.8c0-3.2,2.6-5.8,5.8-5.8h91l50.5-50.5c1.7-1.7,4.1-2.1,6.3-1.2s3.6,3,3.6,5.3v150        C420.7,401,418.1,403.6,414.9,403.6z"></path></g></g><g><g><path class="st0" d="M309.8,267.6h-57c-1.5,0-3-0.6-4.1-1.7l-25.8-25.8h-56.6c-3.2,0-5.8-2.6-5.8-5.8s2.6-5.8,5.8-5.8h59        c1.5,0,3,0.6,4.1,1.7l25.8,25.8h54.6c3.2,0,5.8,2.6,5.8,5.8C315.6,265.1,313,267.6,309.8,267.6z"></path></g></g><g><g><path class="st0" d="M390.5,182.5c-1.5,0-3-0.6-4.1-1.7L370,164.4H202.4c-3.2,0-5.8-2.6-5.8-5.8v-28.1c0-3.2,2.6-5.8,5.8-5.8        s5.8,2.6,5.8,5.8v22.4h164.2c1.5,0,3,0.6,4.1,1.7l18.1,18.1c2.3,2.3,2.3,5.9,0,8.1C393.4,182,392,182.5,390.5,182.5z"></path></g></g><g><g><path class="st0" d="M123.1,135.6c-3.9,0-7.6-1.4-10.5-4c-3.1-2.8-4.9-6.6-5.2-10.8c-0.2-4.2,1.2-8.2,4-11.3        c2.8-3.1,6.6-4.9,10.8-5.2c8.6-0.5,16,6.2,16.5,14.8c0.2,4.2-1.2,8.2-4,11.3c-2.8,3.1-6.6,4.9-10.8,5.2        C123.7,135.6,123.4,135.6,123.1,135.6L123.1,135.6z M123.1,115.8c-0.1,0-0.1,0-0.2,0c-1.1,0-2.1,0.6-2.9,1.4s-1.1,1.9-1.1,3        c0,1.1,0.6,2.1,1.4,2.9c0.8,0.7,1.9,1.1,3,1.1c1.1,0,2.1-0.6,2.9-1.4s1.1-1.9,1.1-3C127.2,117.5,125.3,115.8,123.1,115.8z"></path></g></g><g><g><path class="st0" d="M158.3,101.1c-3.9,0-7.6-1.4-10.5-4c-3.1-2.8-4.9-6.6-5.2-10.8c-0.2-4.2,1.2-8.2,4-11.3        c2.8-3.1,6.6-4.9,10.8-5.2c8.6-0.5,16,6.2,16.5,14.8c0.2,4.2-1.2,8.2-4,11.3c-2.8,3.1-6.6,4.9-10.8,5.2l0,0        C158.9,101.1,158.6,101.1,158.3,101.1L158.3,101.1z M158.9,95.3L158.9,95.3L158.9,95.3L158.9,95.3z M158.4,81.3        c-0.1,0-0.1,0-0.2,0c-1.1,0-2.1,0.6-2.9,1.4s-1.1,1.9-1.1,3c0,1.1,0.6,2.1,1.4,2.9c0.8,0.7,1.9,1.1,3,1.1l0,0        c1.1,0,2.1-0.6,2.9-1.4s1.1-1.9,1.1-3C162.4,83,160.6,81.3,158.4,81.3z"></path></g></g><g><g><path class="st0" d="M202.4,135.3c-8.3,0-15.2-6.5-15.6-14.8c-0.2-4.2,1.2-8.2,4-11.3c2.8-3.1,6.6-4.9,10.8-5.2        c4.2-0.2,8.2,1.2,11.3,4c3.1,2.8,4.9,6.6,5.2,10.8c0.2,4.2-1.2,8.2-4,11.3c-2.8,3.1-6.6,4.9-10.8,5.2        C203,135.2,202.7,135.3,202.4,135.3L202.4,135.3z M202.4,115.4c-0.1,0-0.1,0-0.2,0c-2.3,0.1-4.1,2.1-3.9,4.4        c0.1,2.3,2.1,4.1,4.4,3.9c1.1,0,2.1-0.6,2.9-1.4s1.1-1.9,1.1-3c0-1.1-0.6-2.1-1.4-2.9C204.4,115.8,203.4,115.4,202.4,115.4z"></path></g></g><g><g><path class="st0" d="M114.9,257.3c-3.9,0-7.6-1.4-10.5-4c-3.1-2.8-4.9-6.6-5.2-10.8c-0.5-8.6,6.2-16,14.8-16.5        c4.2-0.2,8.2,1.2,11.3,4c3.1,2.8,4.9,6.6,5.2,10.8c0.2,4.2-1.2,8.2-4,11.3c-2.8,3.1-6.6,4.9-10.8,5.2        C115.5,257.3,115.2,257.3,114.9,257.3L114.9,257.3z M115,237.5c-0.1,0-0.1,0-0.2,0c-2.3,0.1-4.1,2.1-3.9,4.4        c0,1.1,0.6,2.1,1.4,2.9s1.9,1.1,3,1.1l0,0c1.1,0,2.1-0.6,2.9-1.4c0.7-0.8,1.1-1.9,1.1-3c0-1.1-0.6-2.1-1.4-2.9        C117,237.9,116,237.5,115,237.5z"></path></g></g><g><g><path class="st0" d="M155.6,250c-3.9,0-7.6-1.4-10.5-4c-3.1-2.8-4.9-6.6-5.2-10.8c-0.5-8.6,6.2-16,14.8-16.5        c4.2-0.2,8.2,1.2,11.3,4c3.1,2.8,4.9,6.6,5.2,10.8c0.2,4.2-1.2,8.2-4,11.3s-6.6,4.9-10.8,5.2l0,0        C156.2,250,155.9,250,155.6,250L155.6,250z M155.6,230.2c-0.1,0-0.1,0-0.2,0c-2.3,0.1-4.1,2.1-3.9,4.4c0,1.1,0.6,2.1,1.4,2.9        s1.9,1.1,3,1.1l0,0c1.1,0,2.1-0.6,2.9-1.4s1.1-1.9,1.1-3c0-1.1-0.6-2.1-1.4-2.9C157.7,230.6,156.7,230.2,155.6,230.2z"></path></g></g><g><g><path class="st0" d="M321.1,277.5c-3.9,0-7.6-1.4-10.5-4c-3.1-2.8-4.9-6.6-5.2-10.8c-0.2-4.2,1.2-8.2,4-11.3s6.6-4.9,10.8-5.2        c8.6-0.5,16,6.2,16.5,14.8c0.5,8.6-6.2,16-14.8,16.5C321.7,277.5,321.4,277.5,321.1,277.5L321.1,277.5z M321.1,257.7        c-0.1,0-0.1,0-0.2,0c-1.1,0-2.1,0.6-2.9,1.4c-0.7,0.8-1.1,1.9-1.1,3c0,1.1,0.6,2.1,1.4,2.9c0.8,0.7,1.9,1.1,3,1.1        c2.3-0.1,4.1-2.1,3.9-4.4C325.1,259.4,323.3,257.7,321.1,257.7z"></path></g></g><g><g><path class="st0" d="M353.1,245.1c-8.3,0-15.2-6.5-15.6-14.8c-0.5-8.6,6.2-16,14.8-16.5c4.2-0.2,8.2,1.2,11.3,4        c3.1,2.8,4.9,6.6,5.2,10.8c0.2,4.2-1.2,8.2-4,11.3s-6.6,4.9-10.8,5.2C353.6,245.1,353.3,245.1,353.1,245.1L353.1,245.1z         M353.1,225.3c-0.1,0-0.1,0-0.2,0c-2.3,0.1-4.1,2.1-3.9,4.4s2.1,4.1,4.4,3.9c1.1,0,2.1-0.6,2.9-1.4c0.7-0.8,1.1-1.9,1.1-3        c0-1.1-0.6-2.1-1.4-2.9C355.1,225.7,354.1,225.3,353.1,225.3z"></path></g></g><g><g><path class="st0" d="M397.5,200.2c-3.9,0-7.6-1.4-10.5-4c-3.1-2.8-4.9-6.6-5.2-10.8c-0.2-4.2,1.2-8.2,4-11.3        c2.8-3.1,6.6-4.9,10.8-5.2c8.6-0.5,16,6.2,16.5,14.8c0.2,4.2-1.2,8.2-4,11.3s-6.6,4.9-10.8,5.2        C398.1,200.2,397.8,200.2,397.5,200.2L397.5,200.2z M397.5,180.4c-0.1,0-0.1,0-0.2,0c-1.1,0-2.1,0.6-2.9,1.4        c-0.7,0.8-1.1,1.9-1.1,3c0,1.1,0.6,2.1,1.4,2.9s1.9,1.1,3,1.1c1.1,0,2.1-0.6,2.9-1.4c0.7-0.8,1.1-1.9,1.1-3        C401.6,182.1,399.7,180.4,397.5,180.4z"></path></g></g><g><g><path class="st0" d="M259,315.7c-3.9,0-7.6-1.4-10.5-4c-3.1-2.8-4.9-6.6-5.2-10.8c-0.2-4.2,1.2-8.2,4-11.3        c2.8-3.1,6.6-4.9,10.8-5.2c8.6-0.5,16,6.2,16.5,14.8c0.2,4.2-1.2,8.2-4,11.3c-2.8,3.1-6.6,4.9-10.8,5.2l0,0        C259.6,315.7,259.3,315.7,259,315.7L259,315.7z M259,295.9c-0.1,0-0.1,0-0.2,0c-1.1,0-2.1,0.6-2.9,1.4c-0.7,0.8-1.1,1.9-1.1,3        c0,1.1,0.6,2.1,1.4,2.9c0.8,0.7,1.9,1.1,3,1.1l0,0c1.1,0,2.1-0.6,2.9-1.4s1.1-1.9,1.1-3C263,297.6,261.2,295.9,259,295.9z"></path></g></g><g><g><path class="st0" d="M191.5,307.9c-3.9,0-7.6-1.4-10.5-4c-3.1-2.8-4.9-6.6-5.2-10.8c-0.2-4.2,1.2-8.2,4-11.3        c2.8-3.1,6.6-4.9,10.8-5.2c8.6-0.5,16,6.2,16.5,14.8c0.2,4.2-1.2,8.2-4,11.3c-2.8,3.1-6.6,4.9-10.8,5.2        C192.1,307.9,191.8,307.9,191.5,307.9L191.5,307.9z M191.5,288.1c-0.1,0-0.1,0-0.2,0c-1.1,0-2.1,0.6-2.9,1.4s-1.1,1.9-1.1,3        c0,1.1,0.6,2.1,1.4,2.9c0.8,0.7,1.9,1.1,3,1.1c1.1,0,2.1-0.6,2.9-1.4s1.1-1.9,1.1-3C195.6,289.8,193.7,288.1,191.5,288.1z"></path></g></g><g><g><path class="st0" d="M369.2,344.5c-8.3,0-15.2-6.5-15.6-14.8c-0.5-8.6,6.2-16,14.8-16.5c4.2-0.2,8.2,1.2,11.3,4        c3.1,2.8,4.9,6.6,5.2,10.8c0.2,4.2-1.2,8.2-4,11.3c-2.8,3.1-6.6,4.9-10.8,5.2C369.8,344.4,369.5,344.5,369.2,344.5        L369.2,344.5z M369.2,324.6c-0.1,0-0.1,0-0.2,0c-2.3,0.1-4.1,2.1-3.9,4.4s2.1,4.1,4.4,3.9c1.1,0,2.1-0.6,2.9-1.4        c0.7-0.8,1.1-1.9,1.1-3c0-1.1-0.6-2.1-1.4-2.9C371.2,325,370.2,324.6,369.2,324.6z"></path></g></g><g><g><path class="st0" d="M414.9,423.7c-3.9,0-7.6-1.4-10.5-4c-3.1-2.8-4.9-6.6-5.2-10.8c-0.2-4.2,1.2-8.2,4-11.3        c2.8-3.1,6.6-4.9,10.8-5.2c8.6-0.5,16,6.2,16.5,14.8c0.5,8.6-6.2,16-14.8,16.5C415.5,423.7,415.2,423.7,414.9,423.7        L414.9,423.7z M414.9,403.9c-0.1,0-0.1,0-0.2,0c-1.1,0-2.1,0.6-2.9,1.4c-0.7,0.8-1.1,1.9-1.1,3c0,1.1,0.6,2.1,1.4,2.9        c0.8,0.7,1.9,1.1,3,1.1c2.3-0.1,4.1-2.1,3.9-4.4C419,405.6,417.1,403.9,414.9,403.9z"></path></g></g><g><g><path class="st0" d="M232.4,423.7c-8.3,0-15.2-6.5-15.6-14.8c-0.5-8.6,6.2-16,14.8-16.5c4.2-0.2,8.2,1.2,11.3,4        c3.1,2.8,4.9,6.6,5.2,10.8c0.2,4.2-1.2,8.2-4,11.3c-2.8,3.1-6.6,4.9-10.8,5.2C233,423.7,232.7,423.7,232.4,423.7L232.4,423.7z         M232.4,403.9c-0.1,0-0.1,0-0.2,0c-2.3,0.1-4.1,2.1-3.9,4.4s2.1,4.1,4.4,3.9c1.1,0,2.1-0.6,2.9-1.4s1.1-1.9,1.1-3        c0-1.1-0.6-2.1-1.4-2.9C234.4,404.3,233.4,403.9,232.4,403.9z"></path></g></g><g><g><path class="st0" d="M176.9,418.1c-8.3,0-15.2-6.5-15.6-14.8c-0.5-8.6,6.2-16,14.8-16.5c8.6-0.5,16,6.2,16.5,14.8        c0.5,8.6-6.2,16-14.8,16.5l0,0C177.4,418.1,177.2,418.1,176.9,418.1L176.9,418.1z M177.4,412.4L177.4,412.4L177.4,412.4        L177.4,412.4z M176.9,398.3c-0.1,0-0.1,0-0.2,0c-2.3,0.1-4.1,2.1-3.9,4.4s2.1,4.1,4.4,3.9l0,0c2.3-0.1,4.1-2.1,3.9-4.4        C180.9,400,179.1,398.3,176.9,398.3z"></path></g></g><g><g><path class="st0" d="M77.6,327.1c-8.3,0-15.2-6.5-15.6-14.8c-0.5-8.6,6.2-16,14.8-16.5c4.2-0.2,8.2,1.2,11.3,4        c3.1,2.8,4.9,6.6,5.2,10.8c0.2,4.2-1.2,8.2-4,11.3c-2.8,3.1-6.6,4.9-10.8,5.2C78.2,327.1,77.9,327.1,77.6,327.1L77.6,327.1z         M77.6,307.3c-0.1,0-0.1,0-0.2,0c-2.3,0.1-4.1,2.1-3.9,4.4s2.1,4.1,4.4,3.9c1.1,0,2.1-0.6,2.9-1.4s1.1-1.9,1.1-3        c0-1.1-0.6-2.1-1.4-2.9C79.6,307.7,78.7,307.3,77.6,307.3z"></path></g></g><g><g><path class="st0" d="M107.9,364.3c-8.3,0-15.2-6.5-15.6-14.8c-0.2-4.2,1.2-8.2,4-11.3c2.8-3.1,6.6-4.9,10.8-5.2        c4.2-0.2,8.2,1.2,11.3,4c3.1,2.8,4.9,6.6,5.2,10.8c0.2,4.2-1.2,8.2-4,11.3c-2.8,3.1-6.6,4.9-10.8,5.2        C108.5,364.2,108.2,364.3,107.9,364.3L107.9,364.3z M107.9,344.4c-0.1,0-0.1,0-0.2,0c-1.1,0-2.1,0.6-2.9,1.4        c-0.7,0.8-1.1,1.9-1.1,3c0.1,2.3,2.1,4.1,4.4,3.9c1.1,0,2.1-0.6,2.9-1.4s1.1-1.9,1.1-3c0-1.1-0.6-2.1-1.4-2.9        C110,344.8,109,344.4,107.9,344.4z"></path></g></g></g></g></g></g></g>
</svg>
</g><g opacity="1" transform="rotate(0 310.0876 567.7159)">
<svg width="183.3904" height="21" x="310.0876" y="567.7159" version="1.1" preserveAspectRatio="none" viewBox="3.76 -28 246.32 28.2">
  <g transform="matrix(1 0 0 1 0 0)" class="text"><path id="id-6izo4zJp12" d="M20.08-21.04L22.92-21.04L22.92 0L20.20 0L20.20-3.84Q19.08-1.92 17.12-0.86Q15.16 0.20 12.64 0.20L12.64 0.20Q8.52 0.20 6.14-2.10Q3.76-4.40 3.76-8.84L3.76-8.84L3.76-21.04L6.60-21.04L6.60-9.12Q6.60-5.80 8.24-4.08Q9.88-2.36 12.92-2.36L12.92-2.36Q16.24-2.36 18.16-4.38Q20.08-6.40 20.08-10L20.08-10L20.08-21.04Z M36-16.92Q37-19.04 38.98-20.12Q40.96-21.20 43.88-21.20L43.88-21.20L43.88-18.44L43.20-18.48Q39.88-18.48 38-16.44Q36.12-14.40 36.12-10.72L36.12-10.72L36.12 0L33.28 0L33.28-21.04L36-21.04L36-16.92Z M80.60-21.04L83.20-21.04L75.24 0L72.56 0L65.92-17.24L59.28 0L56.60 0L48.68-21.04L51.40-21.04L58-3.16L64.76-21.04L67.20-21.04L73.92-3.16L80.60-21.04Z M105.32 0L102.08 0L95.40-8.80L88.68 0L85.48 0L93.80-10.80L85.88-21.04L89.08-21.04L95.40-12.80L101.72-21.04L104.84-21.04L96.92-10.80L105.32 0Z M115.16-16.92Q116.16-19.04 118.14-20.12Q120.12-21.20 123.04-21.20L123.04-21.20L123.04-18.44L122.36-18.48Q119.04-18.48 117.16-16.44Q115.28-14.40 115.28-10.72L115.28-10.72L115.28 0L112.44 0L112.44-21.04L115.16-21.04L115.16-16.92Z M128.88-9.60L128.88-12.08L139.36-12.08L139.36-9.60L128.88-9.60Z M164.76 0L161.52 0L154.84-8.80L148.12 0L144.92 0L153.24-10.80L145.32-21.04L148.52-21.04L154.84-12.80L161.16-21.04L164.28-21.04L156.36-10.80L164.76 0Z M174.60-16.92Q175.60-19.04 177.58-20.12Q179.56-21.20 182.48-21.20L182.48-21.20L182.48-18.44L181.80-18.48Q178.48-18.48 176.60-16.44Q174.72-14.40 174.72-10.72L174.72-10.72L174.72 0L171.88 0L171.88-21.04L174.60-21.04L174.60-16.92Z M188.32-9.60L188.32-12.08L198.80-12.08L198.80-9.60L188.32-9.60Z M224.20 0L220.96 0L214.28-8.80L207.56 0L204.36 0L212.68-10.80L204.76-21.04L207.96-21.04L214.28-12.80L220.60-21.04L223.72-21.04L215.80-10.80L224.20 0Z M240.60-28L250.08-28L250.08 0L247.20 0L247.20-25.44L240.60-25.44L240.60-28Z"/></g>
</svg>
</g><g opacity="1" transform="rotate(0 216.1911 485.7159)">
<svg width="371.1834" height="60" x="216.1911" y="485.7159" version="1.1" preserveAspectRatio="none" viewBox="1.6016 -26.8359 169.2773 27.3632">
  <g transform="matrix(1 0 0 1 0 0)" class="companyName"><path id="id-D6z1nYkh6" d="M30-18.81L27.79-18.81L27.79-24.55L9.65-24.55L9.65-14.92L24.69-14.92L24.69-12.64L9.65-12.64L9.65-2.21L15.23-2.21L15.23 0L1.60 0L1.60-2.21L7.21-2.21L7.21-24.65L1.60-24.65L1.60-26.84L30-26.84L30-18.81Z M35.76-17.21L33.55-17.21L33.55-26.84L62.79-26.84L62.79-17.21L60.59-17.21L60.59-24.61L49.39-24.61L49.39-2.21L55.39-2.21L55.39 0L40.96 0L40.96-2.21L46.95-2.21L46.95-24.61L35.76-24.61L35.76-17.21Z M66.58-10.23L83.75-10.23Q83.65-11.56 83.14-12.75Q82.64-13.95 81.62-14.85Q80.61-15.76 79.06-16.30Q77.52-16.84 75.35-16.84L75.35-16.84Q73.32-16.84 71.76-16.30Q70.20-15.76 69.10-14.85Q68.01-13.95 67.38-12.75Q66.76-11.56 66.58-10.23L66.58-10.23ZM75.31 0.49L75.31 0.49Q72.75 0.49 70.67-0.19Q68.59-0.86 67.13-2.12Q65.66-3.38 64.86-5.18Q64.06-6.97 64.06-9.20L64.06-9.20Q64.06-11.37 64.90-13.17Q65.74-14.98 67.25-16.28Q68.75-17.58 70.82-18.29Q72.89-19.00 75.35-19.00L75.35-19.00Q77.91-19.00 79.94-18.28Q81.97-17.56 83.38-16.20Q84.79-14.84 85.53-12.91Q86.27-10.98 86.27-8.55L86.27-8.55L86.27-8.13L66.58-8.13Q66.72-6.64 67.35-5.45Q67.99-4.26 69.10-3.42Q70.21-2.58 71.77-2.13Q73.32-1.68 75.31-1.68L75.31-1.68Q77.23-1.68 78.64-1.99Q80.06-2.30 81.04-2.83Q82.03-3.36 82.65-4.02Q83.26-4.69 83.59-5.39L83.59-5.39L86.04-5.39Q84.88-2.42 82.12-0.97Q79.36 0.49 75.31 0.49Z M107.75 0L107.75-2.17Q106.86-1.72 105.76-1.24Q104.67-0.76 103.40-0.37Q102.13 0.02 100.70 0.27Q99.28 0.53 97.71 0.53L97.71 0.53Q95.96 0.53 94.53 0.18Q93.11-0.18 92.11-0.87Q91.11-1.56 90.57-2.59Q90.02-3.61 90.02-4.96L90.02-4.96Q90.02-7.05 91.37-8.38Q92.71-9.71 95.09-10.50Q97.46-11.29 100.70-11.66Q103.95-12.03 107.75-12.21L107.75-12.21L107.75-13.13Q107.75-14.16 107.19-14.90Q106.62-15.64 105.66-16.11Q104.71-16.58 103.45-16.81Q102.19-17.03 100.78-17.03L100.78-17.03Q99.14-17.03 97.92-16.83Q96.70-16.62 95.86-16.22Q95.02-15.82 94.52-15.24Q94.02-14.67 93.79-13.93L93.79-13.93L91.31-14.51Q91.93-16.70 94.29-17.91Q96.64-19.12 100.70-19.12L100.70-19.12Q102.75-19.12 104.49-18.77Q106.23-18.42 107.49-17.66Q108.75-16.89 109.46-15.67Q110.18-14.45 110.18-12.71L110.18-12.71L110.18-2.21L114.82-2.21L114.82 0L107.75 0ZM107.75-4.51L107.75-10.16Q103.48-10 100.55-9.60Q97.62-9.20 95.81-8.56Q94.00-7.93 93.21-7.06Q92.42-6.19 92.42-5.08L92.42-5.08Q92.42-3.36 93.92-2.46Q95.41-1.56 98.30-1.56L98.30-1.56Q99.53-1.56 100.93-1.84Q102.32-2.11 103.63-2.53Q104.94-2.95 106.04-3.48Q107.13-4.00 107.75-4.51L107.75-4.51Z M139.08-11.41L136.95-11.41L136.95-12.32Q136.95-13.52 136.20-14.39Q135.45-15.27 134.29-15.84Q133.13-16.41 131.73-16.68Q130.33-16.95 129.04-16.95L129.04-16.95Q126.86-16.95 125.12-16.43Q123.38-15.90 122.18-14.91Q120.98-13.93 120.34-12.51Q119.71-11.09 119.71-9.32L119.71-9.32Q119.71-7.52 120.33-6.10Q120.96-4.69 122.14-3.69Q123.32-2.70 125.03-2.17Q126.74-1.64 128.91-1.64L128.91-1.64Q130.74-1.64 132.12-1.98Q133.50-2.32 134.45-2.86Q135.41-3.40 136.00-4.06Q136.58-4.73 136.88-5.39L136.88-5.39L139.39-5.39Q138.30-2.50 135.61-1.01Q132.91 0.49 128.79 0.49L128.79 0.49Q126.29 0.49 124.15-0.15Q122.01-0.78 120.46-2.02Q118.91-3.26 118.03-5.09Q117.15-6.91 117.15-9.28L117.15-9.28Q117.15-11.66 118.07-13.50Q118.98-15.33 120.58-16.58Q122.17-17.83 124.31-18.48Q126.45-19.12 128.87-19.12L128.87-19.12Q130.29-19.12 131.52-18.93Q132.75-18.73 133.78-18.39Q134.80-18.05 135.60-17.62Q136.39-17.19 136.95-16.72L136.95-16.72L136.95-18.71L139.08-18.71L139.08-11.41Z M142.19-24.65L142.19-26.84L149.02-26.84L149.02-15.08Q149.94-15.96 151.07-16.71Q152.21-17.46 153.52-18.03Q154.82-18.59 156.27-18.92Q157.71-19.24 159.24-19.24L159.24-19.24Q161.05-19.24 162.41-18.78Q163.77-18.32 164.67-17.48Q165.57-16.64 166.02-15.44Q166.46-14.24 166.46-12.75L166.46-12.75L166.46-2.21L170.88-2.21L170.88 0L159.63 0L159.63-2.21L164.02-2.21L164.02-12.03Q164.02-13.52 163.64-14.48Q163.26-15.45 162.56-16.02Q161.86-16.58 160.85-16.81Q159.84-17.03 158.59-17.03L158.59-17.03Q157.13-17.03 155.72-16.64Q154.32-16.25 153.08-15.66Q151.84-15.08 150.79-14.37Q149.75-13.65 149.02-13.01L149.02-13.01L149.02-2.21L153.44-2.21L153.44 0L142.19 0L142.19-2.21L146.58-2.21L146.58-24.65L142.19-24.65Z"/></g>
</svg>
</g></svg></svg>